<svg xmlns="http://www.w3.org/2000/svg" viewBox="0 0 362 588"><defs><style>.cls-1{fill:#191919;stroke:#1c1c1c;}.cls-1,.cls-2{stroke-miterlimit:10;stroke-width:2px;}.cls-2{fill:none;stroke:#1e1e1e;}</style></defs><title>Back-Plate-Black</title><g id="Layer_3" data-name="Layer 3"><path class="cls-1" d="M360,38.12V547.88a38.12,38.12,0,0,1-34.44,37.94c-1.21.12-2.44.18-3.68.18H38.12A38.07,38.07,0,0,1,2.5,561.43c-.14-.37-.28-.74-.41-1.12-.27-.76-.51-1.52-.72-2.3S1,556.53.83,555.77c0-.13-.06-.25-.08-.38q-.1-.46-.18-.93a.28.28,0,0,1,0-.09q-.12-.66-.21-1.32c0-.1,0-.21,0-.31-.06-.44-.11-.89-.15-1.34l0-.37c0-.5-.07-1-.09-1.51s0-1.09,0-1.64V38.12A38.12,38.12,0,0,1,32.23.46h0A36.83,36.83,0,0,1,38.12,0H321.88A38.13,38.13,0,0,1,360,38.12Z" transform="translate(1 1)"/></g><g id="Layer_2" data-name="Layer 2"><path class="cls-2" d="M360,213.13V547.88a38.12,38.12,0,0,1-34.44,37.94H76.88a39,39,0,0,0-24.33-23.73l-22.81-7.63a38.92,38.92,0,0,0-17.92-1.61L.57,554.46a.28.28,0,0,1,0-.09q-.12-.66-.21-1.32c0-.1,0-.21,0-.31-.06-.44-.11-.89-.15-1.34l0-.37c0-.5-.07-1-.09-1.51s0-1.09,0-1.64V42.27L68.42,65.86l111.71,43,76.36,32.46A309.78,309.78,0,0,1,360,213.13Z" transform="translate(1 1)"/><path class="cls-2" d="M-485.63,837.19" transform="translate(1 1)"/><path class="cls-2" d="M302.41,586H76.94a1.27,1.27,0,0,0-.06-.18,39,39,0,0,0-24.33-23.73l-22.81-7.63a38.92,38.92,0,0,0-17.92-1.61L.57,554.46A38.11,38.11,0,0,1,0,547.83V360.55l18.16-3.9a79.31,79.31,0,0,1,52.18,6.6L106,381.06a79.54,79.54,0,0,1,26.66,21.62l7.92,10a79.32,79.32,0,0,0,42.28,27.47,79.37,79.37,0,0,1,53,45.29l2.19,5A79.3,79.3,0,0,0,254.74,515l25,25a79.46,79.46,0,0,1,22.13,42.86l.5,2.92Z" transform="translate(1 1)"/><path class="cls-2" d="M345.8,576.28v1.28a38,38,0,0,1-20.24,8.26c-1.21.12-2.44.18-3.68.18H76.94a1.27,1.27,0,0,0-.06-.18,39,39,0,0,0-24.33-23.73l-22.81-7.63a38.92,38.92,0,0,0-17.92-1.61L.57,554.46a.28.28,0,0,1,0-.09q-.12-.66-.21-1.32c0-.1,0-.21,0-.31-.06-.44-.11-.89-.15-1.34l0-.37c0-.5-.07-1-.09-1.51s0-1.09,0-1.64v-226l24.6-3a53.83,53.83,0,0,1,27.22,3.74l54.6,22.7,40,16.67a53.89,53.89,0,0,1,25.84,22.6,54.1,54.1,0,0,0,21.62,20.63l29.25,15.26a53.69,53.69,0,0,1,20.42,18.67L271.1,482a53.76,53.76,0,0,0,9.09,10.76l48,43.65A53.9,53.9,0,0,1,345.8,576.28Z" transform="translate(1 1)"/><path class="cls-2" d="M114.8,586H76.94a1.27,1.27,0,0,0-.06-.18,39,39,0,0,0-24.33-23.73l-22.81-7.63a38.92,38.92,0,0,0-17.92-1.61L.57,554.46A38.11,38.11,0,0,1,0,547.83v-27.5a103.41,103.41,0,0,1,108.62,54.06l3.68,7,2.4,4.43Z" transform="translate(1 1)"/><path class="cls-2" d="M136.52,586H76.94a1.27,1.27,0,0,0-.06-.18,39,39,0,0,0-24.33-23.73l-22.81-7.63a38.92,38.92,0,0,0-17.92-1.61L.57,554.46A38.11,38.11,0,0,1,0,547.83V499.92a62.46,62.46,0,0,1,33.66,5.68l10.68,5.08a62.32,62.32,0,0,0,21.49,5.83l2.51.21A62.46,62.46,0,0,1,123,561.6a61.58,61.58,0,0,0,5.17,12.57,62.41,62.41,0,0,0,7.76,11.16l.43.49Z" transform="translate(1 1)"/><path class="cls-2" d="M171.29,586H76.94a1.27,1.27,0,0,0-.06-.18,39,39,0,0,0-24.33-23.73l-22.81-7.63a38.92,38.92,0,0,0-17.92-1.61L.57,554.46A38.11,38.11,0,0,1,0,547.83V470.25l23.56-3.72a32.21,32.21,0,0,1,15.64,1.4l47.94,16.71a32.07,32.07,0,0,1,12.21,7.67l18.73,18.75A32.26,32.26,0,0,0,137,520.29a32.26,32.26,0,0,1,28.1,28.49l2.86,26a31.68,31.68,0,0,0,3.29,11Z" transform="translate(1 1)"/><path class="cls-2" d="M225.47,586H76.94a1.27,1.27,0,0,0-.06-.18,39,39,0,0,0-24.33-23.73l-22.81-7.63a38.92,38.92,0,0,0-17.92-1.61L.57,554.46A38.11,38.11,0,0,1,0,547.83V427.7L16.87,423a56.27,56.27,0,0,1,40.36,3.86L83.59,440a56.06,56.06,0,0,1,15.46,11.4l25.11,26.2a56.38,56.38,0,0,0,23.65,14.71l12.44,3.94a56.27,56.27,0,0,1,36.92,37.49l6,20.13a56.37,56.37,0,0,0,16,25.48,53.58,53.58,0,0,1,6.07,6.46A1.19,1.19,0,0,1,225.47,586Z" transform="translate(1 1)"/><path class="cls-2" d="M262.74,586H76.94a1.27,1.27,0,0,0-.06-.18,39,39,0,0,0-24.33-23.73l-22.81-7.63a38.92,38.92,0,0,0-17.92-1.61L.57,554.46A38.11,38.11,0,0,1,0,547.83V392.56l9.31-2a77.72,77.72,0,0,1,55.32,9l16.18,9.48a77.14,77.14,0,0,1,8.46,5.74l49.87,38.83a77.36,77.36,0,0,0,14.53,8.93l26.75,12.66a77.71,77.71,0,0,1,41.94,50.49A77.76,77.76,0,0,0,237.9,555.8l20.58,24.6c1.46,1.75,2.85,3.56,4.14,5.42Z" transform="translate(1 1)"/><path class="cls-2" d="M360,523.4v24.48a38.12,38.12,0,0,1-34.44,37.94c-1.21.12-2.44.18-3.68.18H76.94a1.27,1.27,0,0,0-.06-.18,39,39,0,0,0-24.33-23.73l-22.81-7.63a38.92,38.92,0,0,0-17.92-1.61L.57,554.46a.28.28,0,0,1,0-.09q-.12-.66-.21-1.32c0-.1,0-.21,0-.31-.06-.44-.11-.89-.15-1.34l0-.37c0-.5-.07-1-.09-1.51s0-1.09,0-1.64V280.59l6.25-1.21a67.86,67.86,0,0,1,39.93,4.37l38.95,16.91a67.8,67.8,0,0,0,43.77,3.51A67.77,67.77,0,0,1,201,330.7L234,377.24a68,68,0,0,0,20.56,19l42.32,25.3a67.75,67.75,0,0,1,28.34,33.48l16.51,42.17a67.86,67.86,0,0,0,18.13,26Z" transform="translate(1 1)"/><path class="cls-2" d="M360,430.32V547.88a38.12,38.12,0,0,1-34.44,37.94c-1.21.12-2.44.18-3.68.18H76.94a1.27,1.27,0,0,0-.06-.18,39,39,0,0,0-24.33-23.73l-22.81-7.63a38.92,38.92,0,0,0-17.92-1.61L.57,554.46a.28.28,0,0,1,0-.09q-.12-.66-.21-1.32c0-.1,0-.21,0-.31-.06-.44-.11-.89-.15-1.34l0-.37c0-.5-.07-1-.09-1.51s0-1.09,0-1.64V223.64l3-.43A83.49,83.49,0,0,1,56.6,233.39l19.13,10.94a83.54,83.54,0,0,0,41.55,11h46a83.62,83.62,0,0,1,74.19,45.05,83.49,83.49,0,0,0,35,35.29l29.57,15.68a83.6,83.6,0,0,1,34.86,35Z" transform="translate(1 1)"/><path class="cls-2" d="M360,337.05V547.88a38.12,38.12,0,0,1-34.44,37.94c-1.21.12-2.44.18-3.68.18H76.94a1.27,1.27,0,0,0-.06-.18,39,39,0,0,0-24.33-23.73l-22.81-7.63a38.92,38.92,0,0,0-17.92-1.61L.57,554.46a.28.28,0,0,1,0-.09q-.12-.66-.21-1.32c0-.1,0-.21,0-.31-.06-.44-.11-.89-.15-1.34l0-.37c0-.5-.07-1-.09-1.51s0-1.09,0-1.64V160.72a321.66,321.66,0,0,1,91.58,26.95l.2.08,71.48,30.95a105.09,105.09,0,0,0,17.3,5.75l51.13,12.17a104.39,104.39,0,0,1,59.54,39.17l14.68,19.69a104.57,104.57,0,0,0,30,27.15Z" transform="translate(1 1)"/><path class="cls-2" d="M76.88,585.82H38a39.05,39.05,0,0,1-5-.32h0a37.79,37.79,0,0,1-9.7-2.62h0A38.08,38.08,0,0,1,.57,554.46l11.25-1.61a38.92,38.92,0,0,1,17.92,1.61l22.81,7.63A39,39,0,0,1,76.88,585.82Z" transform="translate(1 1)"/><path class="cls-2" d="M360,283.65V547.88a38.12,38.12,0,0,1-34.44,37.94c-1.21.12-2.44.18-3.68.18H76.94a1.27,1.27,0,0,0-.06-.18,39,39,0,0,0-24.33-23.73l-22.81-7.63a38.92,38.92,0,0,0-17.92-1.61L.57,554.46a.28.28,0,0,1,0-.09q-.12-.66-.21-1.32c0-.1,0-.21,0-.31-.06-.44-.11-.89-.15-1.34l0-.37c0-.5-.07-1-.09-1.51s0-1.09,0-1.64V98.48L71.71,105a143.71,143.71,0,0,1,55.85,17L240.1,183.28A144,144,0,0,1,266,201.33Z" transform="translate(1 1)"/><path class="cls-2" d="M343.79,6.93l1.37,7A601.87,601.87,0,0,0,360,73.15" transform="translate(1 1)"/><path class="cls-2" d="M307.07.2,318,39.39c.19.68.4,1.37.64,2l9,25.17a29.46,29.46,0,0,1-37.09,37.86L246,89.56c-.88-.3-1.75-.63-2.59-1l-121-53.64c-.47-.21-1-.41-1.44-.59L32.19.44" transform="translate(1 1)"/><polyline class="cls-2" points="322.88 587 303.41 587 263.74 587 226.47 587 172.29 587 137.52 587 115.8 587 77.94 587"/><path class="cls-2" d="M412,0" transform="translate(1 1)"/></g></svg>