<?xml version="1.0" encoding="utf-8"?>
<!-- Generator: Adobe Illustrator 23.1.0, SVG Export Plug-In . SVG Version: 6.00 Build 0)  -->
<svg version="1.1" id="Layer_1" xmlns="http://www.w3.org/2000/svg" xmlns:xlink="http://www.w3.org/1999/xlink" x="0px" y="0px"
	 viewBox="0 0 837 813" style="enable-background:new 0 0 837 813;" xml:space="preserve">
<style type="text/css">
	.st0{fill:#E40000;}
	.st1{fill:#FFFFFF;}
	.st2{fill:#100D1D;}
	.st3{fill:#13111E;}
</style>
<g>
	<path class="st0" d="M836.53,376.41c0,118.08-91.04,244-207.58,330.05c-4.02,2.97-8.06,5.88-12.14,8.76
		c-11.48,8.09-23.19,15.79-35.05,23.04c-13.1,8.03-26.4,15.51-39.81,22.41c-5.09,2.63-10.2,5.17-15.32,7.61
		c-27.68,13.23-55.71,23.87-83.39,31.43c-8.41,2.29-16.79,4.3-25.11,6.02c-14.04,2.88-27.93,4.92-41.59,6.03
		c-1.87,0.15-3.75,0.28-5.62,0.4c-1.16,0.07-2.33,0.15-3.48,0.2c-1.93,0.11-3.84,0.18-5.76,0.24c-2.4,0.07-4.78,0.13-7.16,0.14
		c-0.64,0.01-1.27,0.01-1.91,0.01c-4.25,0-8.48-0.09-12.68-0.28c-1.85-0.09-3.69-0.2-5.54-0.32c-0.41-0.03-0.82-0.06-1.23-0.08
		c-2.85-0.2-5.69-0.45-8.53-0.75c-1.54-0.15-3.07-0.33-4.6-0.51c-2.14-0.25-4.25-0.54-6.37-0.84c-1.53-0.22-3.04-0.45-4.55-0.69
		c-2.43-0.39-4.84-0.81-7.25-1.27c-1.47-0.27-2.95-0.56-4.42-0.86c-14.63-3.01-28.87-7.2-42.69-12.44
		c-12-4.55-23.69-9.9-35.04-15.99c-4.09-2.19-8.15-4.48-12.15-6.87C81.08,696.61-0.02,529.89-0.02,376.41
		C-0.02,170.18,146.4,0.14,352.62,0.14S836.53,170.18,836.53,376.41z"/>
</g>
<g>
	<g>
		<path class="st1" d="M236.63,497.74l-39.56-218.43c0,0,2.09-150.58,178.81-120.25s238.41-17.78,238.41-17.78
			s-18.82,69.01-54.38,84.7c-35.55,15.69,54.38-5.23,54.38-5.23l-65,254.68"/>
		<path class="st2" d="M233.4,498.32l-39.61-218.74l0-0.32c0.04-2.48,1.36-61.11,46.15-98.34c32.12-26.69,78.04-35.15,136.51-25.11
			c172.77,29.65,235.23-16.66,235.84-17.13l7.76-5.98l-2.57,9.44c-0.76,2.8-18.61,66.98-53.2,85.38
			c11.96-1.83,31.39-5.81,49.29-9.97l5.27-1.23l-66.34,259.92l-6.37-1.62l63.67-249.45c-59.1,13.54-60.25,10.08-61.27,7.02
			c-1.29-3.86,3.16-6.15,10.09-9.21c26.54-11.71,43.73-55.7,49.93-74.24c-21.48,11.67-89.39,38.24-233.2,13.56
			c-56.48-9.69-100.62-1.72-131.19,23.69c-40.9,34-43.61,88.55-43.77,93.08l39.5,218.1L233.4,498.32z"/>
	</g>
	<g>
		<path class="st1" d="M550.36,374.76v142.38c0,86.35-70,156.36-156.36,156.36h0c-86.33,0-156.32-69.99-156.32-156.32V374.76
			c0-17.42,4.54-33.75,12.51-47.87c1.21-2.14,3.23-3.73,5.57-4.49c106.33-34.64,217.98-3.6,268.24,14.63
			c15.78,5.72,26.33,20.64,26.35,37.42L550.36,374.76z"/>
		<path class="st2" d="M394,676.79c-88,0-159.6-71.6-159.6-159.6V374.77c0-17.39,4.47-34.5,12.93-49.48c1.6-2.83,4.23-4.96,7.41-6
			c105.38-34.34,214.64-5.55,270.39,14.66c17.03,6.18,28.49,22.46,28.52,40.51v142.69C553.65,605.17,482.03,676.79,394,676.79z
			 M360.17,309.9c-33.5,0-68.67,4.32-103.39,15.63c-1.59,0.52-2.95,1.61-3.73,2.98c-7.9,13.99-12.08,29.99-12.08,46.25v142.42
			c0,84.38,68.65,153.03,153.03,153.03c84.4,0,153.07-68.67,153.07-153.07V374.46c-0.02-15.3-9.75-29.1-24.19-34.33
			C486.36,326.88,426.56,309.9,360.17,309.9z"/>
	</g>
	<circle class="st3" cx="320.68" cy="412.69" r="21.89"/>
	<circle class="st3" cx="468.59" cy="412.69" r="21.89"/>
	<path class="st3" d="M415.79,504.7h-21.16c-3.63,0-6.57-2.94-6.57-6.57s2.94-6.57,6.57-6.57h12.76l-19.14-77.28
		c-0.87-3.52,1.28-7.09,4.8-7.96c3.51-0.88,7.09,1.28,7.96,4.8l21.16,85.43c0.48,1.96,0.04,4.04-1.2,5.63
		C419.72,503.77,417.82,504.7,415.79,504.7z"/>
</g>
<path class="st3" d="M441.66,555.29c5.08,0,8.96,4.58,8.11,9.58c-4.56,26.79-27.93,47.19-56.01,47.19
	c-28.09,0-51.41-20.4-55.97-47.19c-0.85-5,3.04-9.58,8.11-9.58H441.66z"/>
</svg>
