<?xml version="1.0" encoding="utf-8"?>
<!-- Generator: Adobe Illustrator 23.1.0, SVG Export Plug-In . SVG Version: 6.00 Build 0)  -->
<svg version="1.1" xmlns="http://www.w3.org/2000/svg" xmlns:xlink="http://www.w3.org/1999/xlink" x="0px" y="0px"
	 viewBox="0 0 100.82 70.86" style="enable-background:new 0 0 100.82 70.86;" xml:space="preserve">
<style type="text/css">
	.st0{display:none;}
	.st1{display:inline;fill:#FFFFFF;}
	.st2{display:inline;}
	.st3{fill:#131313;}
	.st4{fill:#FFFFFF;}
	.st5{fill:#E40000;}
</style>
<g id="Layer_1" class="st0">
	<rect x="32" y="27.01" class="st1" width="329" height="10"/>
	<g class="st2">
		<circle class="st3" cx="31.96" cy="32.37" r="27.4"/>
		<path class="st4" d="M31.96,63.77c-17.32,0-31.4-14.09-31.4-31.4s14.09-31.4,31.4-31.4s31.4,14.09,31.4,31.4
			S49.28,63.77,31.96,63.77z M31.96,8.97c-12.9,0-23.4,10.5-23.4,23.4s10.5,23.4,23.4,23.4s23.4-10.5,23.4-23.4
			S44.87,8.97,31.96,8.97z"/>
	</g>
	<g class="st2">
		<circle class="st3" cx="196.38" cy="32.37" r="27.4"/>
		<path class="st4" d="M196.38,64.77c-17.87,0-32.4-14.54-32.4-32.4s14.54-32.4,32.4-32.4s32.4,14.54,32.4,32.4
			S214.25,64.77,196.38,64.77z M196.38,9.97c-12.35,0-22.4,10.05-22.4,22.4s10.05,22.4,22.4,22.4s22.4-10.05,22.4-22.4
			S208.73,9.97,196.38,9.97z"/>
	</g>
	<g class="st2">
		<circle class="st5" cx="360.8" cy="32.37" r="27.4"/>
		<path class="st4" d="M360.8,64.77c-17.87,0-32.4-14.54-32.4-32.4s14.54-32.4,32.4-32.4s32.4,14.54,32.4,32.4
			S378.67,64.77,360.8,64.77z M360.8,9.97c-12.35,0-22.4,10.05-22.4,22.4s10.05,22.4,22.4,22.4s22.4-10.05,22.4-22.4
			S373.15,9.97,360.8,9.97z"/>
	</g>
</g>
<g id="plane">
	<g id="XMLID_1_">
		<path class="st4" d="M88.48,31.22l-14.91,2.34c-1.83,0.29-3.43,1.38-4.37,2.97c-4.18,7.16-3.81,6.53-18.46,31.56
			c-0.5,0.85-1.35,1.44-2.33,1.59l-7.22,1.14c-0.95,0.15-1.93-0.13-2.67-0.76c-0.74-0.64-1.15-1.57-1.14-2.54
			c0.02-1.27,0.03-2.45,0.04-3.57c0.12-10.84,0.17-15.07,0.21-17.47c0.02-2.01-0.91-3.78-2.35-4.9c-1.28-1.02-2.98-1.53-4.76-1.25
			c-17.85,2.8-12.68,1.99-17.91,2.81c-3.09,0.49-6.05-1.43-6.88-4.44c-0.5-1.8-0.92-3.34-1.28-4.67c-2.9-10.54-2.21-8.03-4.32-15.67
			c-0.25-0.9-0.1-1.87,0.41-2.67c0.51-0.78,1.33-1.32,2.26-1.47l5.67-0.89c1.18-0.19,2.35,0.28,3.1,1.21
			c3.47,4.38,2.74,3.45,5.89,7.43c1.38,1.74,3.59,2.6,5.78,2.25l10.94-1.72l31.91-5.01l19.78-3.11c3.14-0.49,8.54,0.34,11.92,2.37
			c1.62,0.96,2.78,2.2,3.01,3.7C101.5,25.11,93.13,30.49,88.48,31.22z"/>
	</g>
	<path class="st4" d="M54.92,12.12l-22.3,3.5c-0.46,0.07-0.91-0.2-1.06-0.64l-3.13-9.12l-0.19-0.58c-0.01-0.01-0.02-0.02-0.02-0.04
		c-0.01-0.02-0.01-0.03-0.01-0.04c-0.2-0.8-0.07-1.66,0.34-2.39c0.5-0.87,1.36-1.47,2.35-1.62l7.27-1.14
		c0.81-0.13,1.65,0.05,2.34,0.51l1.17,0.78l13.62,9.04C56.04,10.85,55.79,11.98,54.92,12.12z"/>
</g>
</svg>
