<?xml version="1.0" encoding="utf-8"?>
<!-- Generator: Adobe Illustrator 23.1.0, SVG Export Plug-In . SVG Version: 6.00 Build 0)  -->
<svg version="1.1" xmlns="http://www.w3.org/2000/svg" xmlns:xlink="http://www.w3.org/1999/xlink" x="0px" y="0px"
	 viewBox="0 0 393.2 129.17" style="enable-background:new 0 0 393.2 129.17;" xml:space="preserve">
<style type="text/css">
	.st0{fill:#FFFFFF;}
	.st1{fill:#131313;}
	.st2{fill:#E40000;}
</style>
<g id="Layer_1">
	<rect x="32" y="91.17" class="st0" width="329" height="10"/>
	<g>
		<circle class="st1" cx="31.96" cy="96.54" r="27.4"/>
		<path class="st0" d="M31.96,127.94c-17.32,0-31.4-14.09-31.4-31.4s14.09-31.4,31.4-31.4s31.4,14.09,31.4,31.4
			S49.28,127.94,31.96,127.94z M31.96,73.14c-12.9,0-23.4,10.5-23.4,23.4s10.5,23.4,23.4,23.4s23.4-10.5,23.4-23.4
			S44.87,73.14,31.96,73.14z"/>
	</g>
	<g>
		<circle class="st2" cx="196.38" cy="96.54" r="27.4"/>
		<path class="st0" d="M196.38,128.94c-17.87,0-32.4-14.54-32.4-32.4s14.54-32.4,32.4-32.4s32.4,14.54,32.4,32.4
			S214.25,128.94,196.38,128.94z M196.38,74.14c-12.35,0-22.4,10.05-22.4,22.4s10.05,22.4,22.4,22.4s22.4-10.05,22.4-22.4
			S208.73,74.14,196.38,74.14z"/>
	</g>
	<g>
		<circle class="st1" cx="360.8" cy="96.54" r="27.4"/>
		<path class="st0" d="M360.8,128.94c-17.87,0-32.4-14.54-32.4-32.4s14.54-32.4,32.4-32.4s32.4,14.54,32.4,32.4
			S378.67,128.94,360.8,128.94z M360.8,74.14c-12.35,0-22.4,10.05-22.4,22.4s10.05,22.4,22.4,22.4s22.4-10.05,22.4-22.4
			S373.15,74.14,360.8,74.14z"/>
	</g>
</g>
<g id="plane">
	<g id="XMLID_1_">
		<path class="st0" d="M220.95,19.94l-9.54,1.5c-1.17,0.19-2.19,0.88-2.79,1.9c-2.68,4.58-2.44,4.18-11.81,20.18
			c-0.32,0.55-0.86,0.92-1.49,1.02l-4.62,0.73c-0.61,0.1-1.23-0.08-1.71-0.49c-0.47-0.41-0.74-1-0.73-1.62
			c0.01-0.81,0.02-1.57,0.03-2.28c0.08-6.93,0.11-9.64,0.13-11.18c0.02-1.29-0.58-2.42-1.51-3.14c-0.82-0.65-1.91-0.98-3.05-0.8
			c-11.41,1.79-8.11,1.27-11.46,1.8c-1.98,0.31-3.87-0.91-4.4-2.84c-0.32-1.15-0.59-2.14-0.82-2.99c-1.85-6.74-1.41-5.13-2.76-10.02
			c-0.16-0.58-0.06-1.2,0.26-1.71c0.33-0.5,0.85-0.84,1.45-0.94l3.62-0.57c0.75-0.12,1.5,0.18,1.98,0.77
			c2.22,2.8,1.75,2.21,3.77,4.75c0.89,1.11,2.29,1.66,3.7,1.44l7-1.1l20.41-3.21l12.65-1.99c2.01-0.31,5.46,0.22,7.63,1.52
			c1.03,0.61,1.78,1.41,1.92,2.37C229.28,16.03,223.93,19.47,220.95,19.94z"/>
	</g>
	<path class="st0" d="M199.49,7.72l-14.26,2.24c-0.29,0.05-0.58-0.13-0.68-0.41l-2.01-5.83l-0.12-0.37
		c-0.01-0.01-0.01-0.02-0.01-0.03c-0.01-0.01-0.01-0.02-0.01-0.03c-0.13-0.51-0.05-1.06,0.22-1.53c0.32-0.56,0.87-0.94,1.5-1.04
		l4.65-0.73c0.52-0.08,1.05,0.03,1.49,0.32l0.75,0.5l8.71,5.78C200.2,6.91,200.04,7.63,199.49,7.72z"/>
</g>
</svg>
