<svg id="Layer_1" data-name="Layer 1" xmlns="http://www.w3.org/2000/svg" viewBox="0 0 460.36 119.31"><defs><style>.cls-1{fill:#fffdfd;}.cls-2{fill:#f70d0d;}.cls-3{fill:#fff;}</style></defs><title>Qantas White logo</title><path class="cls-1" d="M-.38.27" transform="translate(-3.16 -1.46)"/><path class="cls-2" d="M10.28,19.81c5.38,7.35,13.11,11.82,20.37,16.85,6.73,4.67,12.8,9.94,16.07,17.74a25.93,25.93,0,0,1,2.21,8.75c.1,2.17,1.1,3.09,3.17,3.46a92.45,92.45,0,0,1,37.3,15,67.2,67.2,0,0,0,6,4C93.44,82.51,90.67,80.3,88,78A93,93,0,0,0,59.93,61.77c-2.31-.85-3.89-2.36-4-4.91s1.64-4.1,3.76-5.12c3.55-1.69,7.45-2.14,11.24-2.94a16.49,16.49,0,0,0,5.32-1.66c1.23-.74,1.62-1.5.15-2.6a38.51,38.51,0,0,0-10.87-5.77c-.49-.16-1.09-.57-1.5-.18s-.1,1,.13,1.49c.55,1.17,1.49,2.39,0,3.52s-2.9.31-4-.71C50.4,33.59,38.51,28.25,25.76,24.5,14.06,21.07,6.44,13.57,3.16,1.76c0,0,.12-.19.23-.19,9.09.15,18.24-.89,27.25,1.35A53.5,53.5,0,0,1,56,17.15q23.6,23.52,47.1,47.12Q116,77.19,128.89,90.11c.54.53,1,1.1,1.55,1.64-.45.73-1.06.41-1.53.41q-44.61,0-89.2,0c-1.33,0-2.22-.06-2.82-1.63Q23.71,55.76,10.37,21C10.24,20.69,9.92,20.37,10.28,19.81Z" transform="translate(-3.16 -1.46)"/><path class="cls-3" d="M165.08,66.58h10.08c-2,6.52-5.15,8.87-11.67,8.87-8.19,0-16.37.09-24.56,0-7.29-.11-14.22-1.7-20.29-6-6.8-4.82-9.83-12.27-8-19.69,1.37-5.43,4.82-9.33,9.53-12.16,8.18-4.91,17.14-5.79,26.4-4.83a33.49,33.49,0,0,1,17.28,6.44c9.61,7.35,10.17,19.57,1.65,26.69A4.72,4.72,0,0,0,165.08,66.58ZM140.84,42.19c-4.94,0-9.55,1-13.62,3.69-6.58,4.44-6.59,11.56-.07,16.06,7.26,5,20,5,27.3,0,6.55-4.48,6.6-11.57.05-16A23.34,23.34,0,0,0,140.84,42.19Z" transform="translate(-3.16 -1.46)"/><path class="cls-3" d="M438.6,35.48a114.67,114.67,0,0,1,21.25,2.74c1.56.34,2.36.77,1.61,2.57a20.61,20.61,0,0,0-1.3,4.7c-.24,1.47-.9,1.72-2.23,1.41a108.81,108.81,0,0,0-16.86-2.48,77,77,0,0,0-14.95.25,14.16,14.16,0,0,0-2.51.52c-.82.25-1.73.57-1.66,1.66.07.94.89,1.27,1.65,1.43,3.28.67,6.56,1.32,9.86,1.9,6.74,1.21,13.56,2,20.2,3.74A18.5,18.5,0,0,1,458.84,56c5.78,3.54,6.3,10.32,1.08,14.64-3.69,3-8.19,4.13-12.77,4.69a98,98,0,0,1-35-2.28c-1.74-.42-2.47-1-1.66-2.94s.85-4.93,2.28-5.89,4,.76,6.12,1.19a86.35,86.35,0,0,0,27.68,1.15,16.61,16.61,0,0,0,3.16-.79c.74-.24,1.5-.63,1.46-1.59s-.81-1.24-1.59-1.45c-3.84-1-7.78-1.54-11.69-2.24-5.9-1.05-11.86-1.8-17.69-3.25a23.75,23.75,0,0,1-5.26-1.89c-6.5-3.39-7.13-11.05-1.24-15.45,3.62-2.7,7.9-3.56,12.26-4.11A71.26,71.26,0,0,1,438.6,35.48Z" transform="translate(-3.16 -1.46)"/><path class="cls-3" d="M252.5,49.73c-.52.71-.24,1.5-.24,2.24,0,7.23,0,14.46,0,21.69,0,1.37-.27,1.92-1.77,1.83-2.41-.14-4.84-.1-7.25,0-1.28,0-1.75-.28-1.74-1.65q.08-18.19,0-36.38c0-1.4.53-1.71,1.78-1.63,1.48.09,3,0,4.45,0a11.7,11.7,0,0,1,8.12,3c8.57,7.22,17.23,14.35,25.86,21.5.58.49,1.19.94,2.15,1.69V54.76c0-5.68.06-11.35,0-17,0-1.56.44-2,2-1.92,2.41.12,4.84.08,7.25,0,1.19,0,1.63.28,1.63,1.55q-.06,18.3,0,36.61c0,1.32-.51,1.52-1.64,1.49-2.65-.06-5.3-.08-7.95,0a3.71,3.71,0,0,1-2.66-1.19q-14-11.66-28-23.29C253.83,50.53,253.37,49.84,252.5,49.73Z" transform="translate(-3.16 -1.46)"/><path class="cls-3" d="M237,75.45c-3.65,0-7.15,0-10.66,0a1.76,1.76,0,0,1-2-1.2c0-.08-.09-.14-.11-.21-1.6-5.28-5.27-6.42-10.47-6-6.59.47-13.25.15-19.88.08-1.4,0-2.47.23-2.92,1.65-1.54,4.93-4.88,6.61-9.87,5.74a32.93,32.93,0,0,0-5.39,0c2.43-4.18,4.68-8,6.92-11.93,4.28-7.4,8.63-14.76,12.81-22.21a9.77,9.77,0,0,1,9.52-5.48c1.33.05,2.65,0,4,0A9,9,0,0,1,217,40.49q9.92,17.15,19.86,34.29A3.36,3.36,0,0,1,237,75.45Zm-21-16c-3-5.36-5.86-10.42-8.73-15.46-.89-1.57-1.44-.46-1.91.35-1.65,2.9-3.28,5.82-4.92,8.73-1.15,2.06-2.31,4.12-3.58,6.38Z" transform="translate(-3.16 -1.46)"/><path class="cls-3" d="M407.14,75.45c-3.92,0-7.42,0-10.93,0-1,0-1.67-.2-2-1.14a3.23,3.23,0,0,1-.22-.41c-1.59-5-5-6.28-10.08-5.9-6.75.5-13.56.16-20.34.09-1.34,0-2.32.28-2.73,1.59-1.58,5-5,6.68-10.07,5.8a28.2,28.2,0,0,0-4.87,0,3.86,3.86,0,0,1,.94-2.2c6.14-10.63,12.37-21.2,18.42-31.88,2.21-3.9,5.32-5.71,9.72-5.54,1.33.05,2.65,0,4,0,3.14.12,5.86,1.22,7.5,4C393.3,51.57,400.1,63.33,407.14,75.45Zm-30-31.34c-.45-.8-1-1.37-1.68-.25-2.92,5.1-5.78,10.23-8.78,15.56h19.09" transform="translate(-3.16 -1.46)"/><path class="cls-3" d="M327.41,35.84c8.42,0,16.85,0,25.27,0,1.66,0,2.48.27,2.25,2.13-.28,2.21,1,5.17-.5,6.45-1.26,1.09-4.15.37-6.32.38-4.36,0-8.73.11-13.1,0-1.82-.06-2.18.57-2.17,2.24.08,8.79,0,17.57.08,26.36,0,1.74-.41,2.32-2.19,2.17a42.87,42.87,0,0,0-6.31,0c-1.78.13-2.37-.35-2.34-2.24.11-8.55-.06-17.11.12-25.66.05-2.48-.74-2.94-3-2.87-5.77.16-11.55,0-17.32.09-1.46,0-1.91-.39-1.81-1.83a40,40,0,0,0,0-5.36c-.1-1.44.4-1.83,1.84-1.81C310.41,35.87,318.91,35.84,327.41,35.84Z" transform="translate(-3.16 -1.46)"/><path class="cls-3" d="M244.34,114.71c-3.78,0-6.37-1.82-7-4.89-.14-.64-.77-1.65.55-1.81.84-.1,1.88-.42,2,1.14.13,1.88,1.44,2.86,3.2,3.21,2,.39,3.93.26,5.39-1.37a3.62,3.62,0,0,0-1.18-5.7c-1.7-.92-3.55-1.55-5.33-2.34-3.39-1.49-4.81-3.79-4.13-6.65s3.52-4.73,7.25-4.52c3.51.19,6.06,2.31,6.41,5.33.07.62.25,1.35-.75,1.28-.67,0-1.47.41-1.85-.79-1-3.15-2.46-4-5.46-3.54-1.58.25-2.83.92-3.12,2.66a3.12,3.12,0,0,0,2,3.58c1.61.76,3.3,1.37,4.93,2.08,3.92,1.7,5.32,4,4.56,7.3S248.36,114.76,244.34,114.71Z" transform="translate(-3.16 -1.46)"/><path class="cls-3" d="M258.14,113.22c0,2.24,0,4.26,0,6.28,0,.85-.18,1.26-1.15,1.26s-1.37-.23-1.36-1.29c0-6.76,0-13.53,0-20.3,0-.47-.3-1.21.52-1.32.56-.08,1.34-.27,1.48.65.17,1.21.6.63,1.17.27,4.86-3,9.31-.63,9.48,5.11,0,1.24,0,2.49,0,3.73C268.29,114.08,264.07,116.54,258.14,113.22Zm7.59-7.12h0c0-.85,0-1.7,0-2.55-.09-2.5-1.41-3.87-3.66-3.86a3.75,3.75,0,0,0-3.9,3.77,43.14,43.14,0,0,0,0,5.57,3.72,3.72,0,0,0,4.13,3.5c2.1-.12,3.29-1.37,3.4-3.64C265.77,108,265.73,107,265.73,106.1Z" transform="translate(-3.16 -1.46)"/><path class="cls-3" d="M361.91,114.35c-1.32.21-1.45-.67-1.74-1.51-1.19-3.56-1.21-3.56-5.05-3.56a6.4,6.4,0,0,1-1.16,0c-2.68-.47-4.32.43-4.56,3.3,0,.3-.24.58-.29.88-.24,1.29-1.27,1-2,.89-1.33-.19-.45-1.11-.3-1.58,2-6.42,4.16-12.81,6.2-19.22.3-.92.6-1.44,1.71-1.44s1.58.44,1.92,1.51c2,6.41,4.17,12.8,6.29,19.19C363.26,113.9,363.4,114.71,361.91,114.35Zm-7.2-18.72c-1.22,3.88-2.25,7.11-3.27,10.34-.25.78,0,1.14.85,1.12,1.94,0,3.88,0,6.07,0C357.18,103.35,356.05,99.83,354.71,95.63Z" transform="translate(-3.16 -1.46)"/><path class="cls-3" d="M429.32,112.65a6.13,6.13,0,0,1-5.5,2c-2-.25-3.67-1.2-4.24-3.14a17.48,17.48,0,0,1,.07-11c1.12-3.13,5.25-4,8.31-2.17.67.41,1.4,1.69,1.77-.27.08-.43.81-.33,1.27-.3.67,0,.61.58.61,1,0,4.81,0,9.62,0,14.42,0,.61-.07,1-.83,1.11C429.66,114.53,429.56,113.74,429.32,112.65Zm-7.81-6.55c0,.93,0,1.86,0,2.79.12,2.25,1.31,3.51,3.41,3.63a3.64,3.64,0,0,0,4.09-3.26,39.64,39.64,0,0,0,0-6.26A3.65,3.65,0,0,0,425,99.7a3.44,3.44,0,0,0-3.44,3.61C421.47,104.24,421.51,105.17,421.51,106.1Z" transform="translate(-3.16 -1.46)"/><path class="cls-3" d="M461.91,106.15c0,2.33,0,4.66,0,7,0,.44.17,1-.42,1.18-.42.1-1.26,0-1.3-.16-.47-1.84-1.2-.79-2-.29a5.7,5.7,0,0,1-8.85-4.36,37.12,37.12,0,0,1,0-6.75c.4-4.58,5.05-6.78,9-4.32.81.5,1.45,1.43,1.8-.35.08-.43.82-.29,1.26-.24.69.08.54.64.54,1.07C461.92,101.33,461.91,103.74,461.91,106.15Zm-10.12-.36h0c0,1.09-.06,2.17,0,3.25a3.39,3.39,0,0,0,3.35,3.49,3.61,3.61,0,0,0,4.11-3,18.94,18.94,0,0,0,0-6.92,3.61,3.61,0,0,0-4.15-2.92c-2.12.2-3.14,1.5-3.31,3.53C451.73,104.09,451.79,104.94,451.79,105.79Z" transform="translate(-3.16 -1.46)"/><path class="cls-3" d="M378.5,106.14q0,3.49,0,7c0,.51.18,1.16-.66,1.22-.53,0-1.15.18-1.34-.56-.28-1.17-.68-.69-1.35-.24-4.23,2.81-8.77.68-9.09-4.34-.21-3.33,0-6.68-.08-10,0-.94.2-1.38,1.28-1.41,1.29,0,1.34.63,1.33,1.59,0,3,0,6.07,0,9.1,0,2.68,1.22,4,3.43,4.07a3.8,3.8,0,0,0,4-4c.12-3,0-6.06,0-9.1,0-.81-.26-1.68,1.18-1.68s1.3.68,1.29,1.6C378.48,101.63,378.5,103.88,378.5,106.14Z" transform="translate(-3.16 -1.46)"/><path class="cls-3" d="M326.18,106.24c0,.78,0,1.56,0,2.33-.17,3.82-2.47,6.08-6.2,6.14-3.89.06-6.37-2.2-6.56-6-.07-1.63-.06-3.26,0-4.9.13-3.87,2.6-6.29,6.35-6.31s6.24,2.37,6.41,6.22C326.21,104.53,326.18,105.38,326.18,106.24Zm-2.51-.23c0-.93.08-1.87,0-2.79A3.65,3.65,0,0,0,320,99.68a3.5,3.5,0,0,0-4,3.11,19.33,19.33,0,0,0,0,6.7,3.64,3.64,0,0,0,4,3.15,3.8,3.8,0,0,0,3.61-3.61C323.75,108,323.68,107,323.67,106Z" transform="translate(-3.16 -1.46)"/><path class="cls-3" d="M388.06,114.71c-3.22,0-5.43-1.45-5.94-3.84-.12-.55-.6-1.33.39-1.5.67-.11,1.39-.38,1.82.78a3.91,3.91,0,0,0,5,2.49,2.67,2.67,0,0,0,2.35-2.52,2.35,2.35,0,0,0-1.91-2.55c-1.41-.44-2.82-.86-4.21-1.36-1.93-.69-3.23-2-3.17-4.12s1.41-3.54,3.42-4.25c3.07-1.07,6.68.07,7.76,2.48.31.7,1,1.7-.1,2.16-.76.33-1.6.25-2.05-1.07-.73-2.16-4.31-2.66-5.94-1a2,2,0,0,0,.58,3.45,39.34,39.34,0,0,0,3.75,1.27c3.59,1.22,4.76,2.79,4.22,5.63C393.58,113.29,391.39,114.75,388.06,114.71Z" transform="translate(-3.16 -1.46)"/><path class="cls-3" d="M331.49,107.19c0-1.48,0-3,0-4.42s.48-3.11-2-2.79c-.74.1-.65-.69-.66-1.22s.22-1,.8-.86c1.84.32,1.87-.81,2-2.16a5.12,5.12,0,0,1,5.87-4.39c.8.08,1.09.36,1.09,1.13s-.25,1.16-1.08,1.12a4.32,4.32,0,0,0-1.39.11A2.81,2.81,0,0,0,334,96.92c.09,1.79,1.53.65,2.31.94.61.22,1.55-.39,1.86.46.46,1.29-.16,2-1.51,1.71-2.31-.42-2.88.54-2.74,2.75.2,3.32,0,6.67.06,10,0,.92.05,1.64-1.27,1.64s-1.26-.76-1.25-1.65C331.51,110.91,331.49,109.05,331.49,107.19Z" transform="translate(-3.16 -1.46)"/><path class="cls-3" d="M301.14,107.18c0,1.78,0,3.57,0,5.35,0,.89.32,1.88-1.26,1.89s-1.34-.85-1.34-1.81c0-3.57,0-7.14,0-10.71,0-1.31-.15-2.12-1.73-1.88-.79.12-1.58.09-1.55-1.12,0-1,.69-1.13,1.42-1,1.63.27,2-.52,1.85-2a5.13,5.13,0,0,1,.08-2.07c.25-.74,1.07-.43,1.66-.44.92,0,.87.68.85,1.32-.06,1.75-.5,3.75,2.5,3.17.74-.14.74.61.75,1.17s-.38,1.06-1,.93c-2.56-.53-2.28,1.17-2.25,2.73S301.14,105.7,301.14,107.18Z" transform="translate(-3.16 -1.46)"/><path class="cls-3" d="M400,107.18c0-1.86-.07-3.73,0-5.59.06-1.24-.36-1.69-1.59-1.57-.83.08-1.77.23-1.7-1.18s1-1,1.69-.93c1.46.15,1.72-.59,1.58-1.78,0-.39,0-.78,0-1.17-.08-1,0-1.61,1.32-1.58s1.22.68,1.16,1.51c-.13,1.78-.25,3.51,2.47,3,.8-.14.75.55.78,1.1,0,.83-.37,1.17-1.13,1-2.15-.4-2.18.87-2.14,2.44.07,3.42,0,6.84,0,10.26,0,.86.17,1.69-1.21,1.7s-1.29-.73-1.27-1.64C400,110.92,400,109.05,400,107.18Z" transform="translate(-3.16 -1.46)"/><path class="cls-3" d="M279,106.1c0-2.33,0-4.65,0-7,0-.49-.21-1.17.6-1.28.45-.06,1.19-.18,1.28.26.49,2.31,1.34.61,2,.21a6.56,6.56,0,0,1,2.64-.85c.75-.08,1.21.2,1.14,1-.05.56.19,1.11-.78,1.35-4,1-4.36,1.48-4.37,5.46,0,2.4,0,4.8,0,7.21,0,.85.38,1.89-1.22,1.91s-1.33-.87-1.32-1.81C279,110.44,279,108.27,279,106.1Z" transform="translate(-3.16 -1.46)"/><path class="cls-3" d="M436,102.71c0-3.17,0-6.35,0-9.52,0-.9-.27-1.88,1.29-1.85s1.16.91,1.16,1.72c0,6.59,0,13.17,0,19.76,0,.93,0,1.61-1.3,1.59s-1.17-.88-1.17-1.71Q436,107.71,436,102.71Z" transform="translate(-3.16 -1.46)"/><path class="cls-3" d="M409.94,97.8c.23,0,.65,0,.67.11.66,2.68,1.68.53,2.56.2a15.92,15.92,0,0,1,2-.62c.78-.17,1.38,0,1.34,1,0,.72,0,1.19-1,1.36-3.16.5-4.08,1.69-4.11,4.84q0,4.08,0,8.16c0,1-.09,1.59-1.35,1.57s-1.14-.72-1.14-1.53q0-6.87,0-13.75C408.9,98.41,408.83,97.66,409.94,97.8Z" transform="translate(-3.16 -1.46)"/><path class="cls-3" d="M292.23,106.24c0,2.25,0,4.5,0,6.75,0,1-.2,1.43-1.28,1.42s-1.35-.31-1.34-1.34c.05-4.59,0-9.17,0-13.75,0-1,.17-1.56,1.39-1.54s1.23.59,1.22,1.47C292.21,101.58,292.23,103.91,292.23,106.24Z" transform="translate(-3.16 -1.46)"/><path class="cls-3" d="M445.43,106.06c0,2.32,0,4.65,0,7,0,1-.24,1.37-1.29,1.39s-1.2-.59-1.2-1.45c0-4.57,0-9.13,0-13.7,0-.8-.07-1.47,1.14-1.48s1.36.58,1.34,1.55C445.4,101.58,445.43,103.82,445.43,106.06Z" transform="translate(-3.16 -1.46)"/><path class="cls-3" d="M274.65,106.06c0,2.32,0,4.65,0,7,0,1-.22,1.37-1.28,1.38s-1.21-.57-1.21-1.44c0-4.57,0-9.14,0-13.71,0-.82-.05-1.45,1.15-1.48s1.35.57,1.33,1.55C274.62,101.57,274.65,103.82,274.65,106.06Z" transform="translate(-3.16 -1.46)"/><path class="cls-3" d="M273.43,91.52c.87.1,1.56.51,1.58,1.57a1.38,1.38,0,0,1-1.38,1.55,1.49,1.49,0,0,1-1.8-1.39C271.73,92.25,272.37,91.69,273.43,91.52Z" transform="translate(-3.16 -1.46)"/><path class="cls-3" d="M444.36,94.67c-1.08,0-1.73-.46-1.75-1.52a1.46,1.46,0,0,1,1.59-1.6A1.47,1.47,0,0,1,445.77,93,1.5,1.5,0,0,1,444.36,94.67Z" transform="translate(-3.16 -1.46)"/><path class="cls-3" d="M292.51,93.18a1.46,1.46,0,0,1-1.71,1.46,1.38,1.38,0,0,1-1.4-1.5A1.42,1.42,0,0,1,291,91.57,1.47,1.47,0,0,1,292.51,93.18Z" transform="translate(-3.16 -1.46)"/></svg>